<svg xmlns="http://www.w3.org/2000/svg" xmlns:xlink="http://www.w3.org/1999/xlink" width="500" zoomAndPan="magnify" viewBox="0 0 375 374.999991" height="500" preserveAspectRatio="xMidYMid meet" version="1.0"><defs><g/><clipPath id="81057196ab"><path d="M 0.441406 0.839844 L 169 0.839844 L 169 131 L 0.441406 131 Z M 0.441406 0.839844 " clip-rule="nonzero"/></clipPath><clipPath id="e7368849dd"><path d="M 110 0.839844 L 256.28125 0.839844 L 256.28125 131 L 110 131 Z M 110 0.839844 " clip-rule="nonzero"/></clipPath><clipPath id="618e8de22a"><path d="M 0.441406 19 L 130 19 L 130 156 L 0.441406 156 Z M 0.441406 19 " clip-rule="nonzero"/></clipPath><clipPath id="65544101d5"><path d="M 126.328125 21.976562 L 152.472656 21.976562 L 152.472656 35.023438 L 126.328125 35.023438 Z M 126.328125 21.976562 " clip-rule="nonzero"/></clipPath><clipPath id="4f9b2a3329"><path d="M 152.472656 35.023438 C 152.472656 27.917969 146.53125 21.976562 139.425781 21.976562 C 132.320312 21.976562 126.378906 27.917969 126.378906 35.023438 L 133.625 35.023438 C 133.625 31.863281 136.265625 29.222656 139.425781 29.222656 C 142.585938 29.222656 145.226562 31.863281 145.226562 35.023438 Z M 152.472656 35.023438 " clip-rule="nonzero"/></clipPath><clipPath id="4ede53e1d6"><path d="M 0.328125 0.976562 L 26.472656 0.976562 L 26.472656 14.023438 L 0.328125 14.023438 Z M 0.328125 0.976562 " clip-rule="nonzero"/></clipPath><clipPath id="b92843f41a"><path d="M 26.472656 14.023438 C 26.472656 6.917969 20.53125 0.976562 13.425781 0.976562 C 6.320312 0.976562 0.378906 6.917969 0.378906 14.023438 L 7.625 14.023438 C 7.625 10.863281 10.265625 8.222656 13.425781 8.222656 C 16.585938 8.222656 19.226562 10.863281 19.226562 14.023438 Z M 26.472656 14.023438 " clip-rule="nonzero"/></clipPath><clipPath id="706edbdd82"><rect x="0" width="27" y="0" height="15"/></clipPath><clipPath id="71d94f7604"><path d="M 57 165 L 130 165 L 130 236.519531 L 57 236.519531 Z M 57 165 " clip-rule="nonzero"/></clipPath><clipPath id="6942510275"><path d="M 151 165 L 222 165 L 222 236.519531 L 151 236.519531 Z M 151 165 " clip-rule="nonzero"/></clipPath><clipPath id="f9a2da03a3"><path d="M 90 197 L 155 197 L 155 236.519531 L 90 236.519531 Z M 90 197 " clip-rule="nonzero"/></clipPath><clipPath id="b85eca9880"><path d="M 124 197 L 190 197 L 190 236.519531 L 124 236.519531 Z M 124 197 " clip-rule="nonzero"/></clipPath><clipPath id="e8b343efde"><path d="M 86.589844 192.5625 L 87.171875 192.5625 L 87.171875 193.019531 L 86.589844 193.019531 Z M 86.589844 192.5625 " clip-rule="nonzero"/></clipPath><clipPath id="8d0af36e4a"><path d="M 87.140625 192.835938 C 86.039062 193.324219 87.015625 192.589844 87.015625 192.589844 " clip-rule="nonzero"/></clipPath><clipPath id="13b9a20897"><path d="M 0.589844 0.5625 L 1.171875 0.5625 L 1.171875 1.019531 L 0.589844 1.019531 Z M 0.589844 0.5625 " clip-rule="nonzero"/></clipPath><clipPath id="1897736db9"><path d="M 1.140625 0.835938 C 0.0390625 1.324219 1.015625 0.589844 1.015625 0.589844 " clip-rule="nonzero"/></clipPath><clipPath id="fb80da813d"><rect x="0" width="2" y="0" height="2"/></clipPath><clipPath id="43cdffa0a4"><path d="M 84.636719 192.4375 L 85.21875 192.4375 L 85.21875 192.855469 L 84.636719 192.855469 Z M 84.636719 192.4375 " clip-rule="nonzero"/></clipPath><clipPath id="fbf779f40c"><path d="M 85.183594 192.710938 C 84.085938 193.078125 85.0625 192.46875 85.0625 192.46875 " clip-rule="nonzero"/></clipPath><clipPath id="b8e0568820"><path d="M 0.636719 0.4375 L 1.21875 0.4375 L 1.21875 0.855469 L 0.636719 0.855469 Z M 0.636719 0.4375 " clip-rule="nonzero"/></clipPath><clipPath id="fd9cf642f4"><path d="M 1.183594 0.710938 C 0.0859375 1.078125 1.0625 0.46875 1.0625 0.46875 " clip-rule="nonzero"/></clipPath><clipPath id="32af5f3476"><rect x="0" width="2" y="0" height="1"/></clipPath><clipPath id="1439aab197"><path d="M 132.234375 198.210938 L 137.09375 198.210938 L 137.09375 203.070312 L 132.234375 203.070312 Z M 132.234375 198.210938 " clip-rule="nonzero"/></clipPath><clipPath id="a418c6293c"><path d="M 134.664062 198.210938 C 133.320312 198.210938 132.234375 199.296875 132.234375 200.640625 C 132.234375 201.980469 133.320312 203.070312 134.664062 203.070312 C 136.003906 203.070312 137.09375 201.980469 137.09375 200.640625 C 137.09375 199.296875 136.003906 198.210938 134.664062 198.210938 Z M 134.664062 198.210938 " clip-rule="nonzero"/></clipPath><clipPath id="18f98ce93b"><path d="M 0.234375 0.210938 L 5.09375 0.210938 L 5.09375 5.070312 L 0.234375 5.070312 Z M 0.234375 0.210938 " clip-rule="nonzero"/></clipPath><clipPath id="ba7042637e"><path d="M 2.664062 0.210938 C 1.320312 0.210938 0.234375 1.296875 0.234375 2.640625 C 0.234375 3.980469 1.320312 5.070312 2.664062 5.070312 C 4.003906 5.070312 5.09375 3.980469 5.09375 2.640625 C 5.09375 1.296875 4.003906 0.210938 2.664062 0.210938 Z M 2.664062 0.210938 " clip-rule="nonzero"/></clipPath><clipPath id="96e1b36d19"><rect x="0" width="6" y="0" height="6"/></clipPath><clipPath id="46d62c19da"><path d="M 144.460938 198.210938 L 149.320312 198.210938 L 149.320312 203.070312 L 144.460938 203.070312 Z M 144.460938 198.210938 " clip-rule="nonzero"/></clipPath><clipPath id="bdc2b117f2"><path d="M 146.890625 198.210938 C 145.546875 198.210938 144.460938 199.296875 144.460938 200.640625 C 144.460938 201.980469 145.546875 203.070312 146.890625 203.070312 C 148.230469 203.070312 149.320312 201.980469 149.320312 200.640625 C 149.320312 199.296875 148.230469 198.210938 146.890625 198.210938 Z M 146.890625 198.210938 " clip-rule="nonzero"/></clipPath><clipPath id="ff9eb4b5aa"><path d="M 0.460938 0.210938 L 5.320312 0.210938 L 5.320312 5.070312 L 0.460938 5.070312 Z M 0.460938 0.210938 " clip-rule="nonzero"/></clipPath><clipPath id="f863fd7ede"><path d="M 2.890625 0.210938 C 1.546875 0.210938 0.460938 1.296875 0.460938 2.640625 C 0.460938 3.980469 1.546875 5.070312 2.890625 5.070312 C 4.230469 5.070312 5.320312 3.980469 5.320312 2.640625 C 5.320312 1.296875 4.230469 0.210938 2.890625 0.210938 Z M 2.890625 0.210938 " clip-rule="nonzero"/></clipPath><clipPath id="3a574d3676"><rect x="0" width="6" y="0" height="6"/></clipPath><clipPath id="929eeae00d"><path d="M 144.460938 214.011719 L 149.320312 214.011719 L 149.320312 218.875 L 144.460938 218.875 Z M 144.460938 214.011719 " clip-rule="nonzero"/></clipPath><clipPath id="4b2a9eacf2"><path d="M 146.890625 214.011719 C 145.546875 214.011719 144.460938 215.101562 144.460938 216.445312 C 144.460938 217.785156 145.546875 218.875 146.890625 218.875 C 148.230469 218.875 149.320312 217.785156 149.320312 216.445312 C 149.320312 215.101562 148.230469 214.011719 146.890625 214.011719 Z M 146.890625 214.011719 " clip-rule="nonzero"/></clipPath><clipPath id="c304532195"><path d="M 0.460938 0.0117188 L 5.320312 0.0117188 L 5.320312 4.875 L 0.460938 4.875 Z M 0.460938 0.0117188 " clip-rule="nonzero"/></clipPath><clipPath id="5824d6e364"><path d="M 2.890625 0.0117188 C 1.546875 0.0117188 0.460938 1.101562 0.460938 2.445312 C 0.460938 3.785156 1.546875 4.875 2.890625 4.875 C 4.230469 4.875 5.320312 3.785156 5.320312 2.445312 C 5.320312 1.101562 4.230469 0.0117188 2.890625 0.0117188 Z M 2.890625 0.0117188 " clip-rule="nonzero"/></clipPath><clipPath id="a8ac51fec8"><rect x="0" width="6" y="0" height="5"/></clipPath><clipPath id="da41aa2cd6"><path d="M 132.234375 214.011719 L 137.09375 214.011719 L 137.09375 218.875 L 132.234375 218.875 Z M 132.234375 214.011719 " clip-rule="nonzero"/></clipPath><clipPath id="3931ab2b43"><path d="M 134.664062 214.011719 C 133.320312 214.011719 132.234375 215.101562 132.234375 216.445312 C 132.234375 217.785156 133.320312 218.875 134.664062 218.875 C 136.003906 218.875 137.09375 217.785156 137.09375 216.445312 C 137.09375 215.101562 136.003906 214.011719 134.664062 214.011719 Z M 134.664062 214.011719 " clip-rule="nonzero"/></clipPath><clipPath id="9863595565"><path d="M 0.234375 0.0117188 L 5.09375 0.0117188 L 5.09375 4.875 L 0.234375 4.875 Z M 0.234375 0.0117188 " clip-rule="nonzero"/></clipPath><clipPath id="e18032e5e9"><path d="M 2.664062 0.0117188 C 1.320312 0.0117188 0.234375 1.101562 0.234375 2.445312 C 0.234375 3.785156 1.320312 4.875 2.664062 4.875 C 4.003906 4.875 5.09375 3.785156 5.09375 2.445312 C 5.09375 1.101562 4.003906 0.0117188 2.664062 0.0117188 Z M 2.664062 0.0117188 " clip-rule="nonzero"/></clipPath><clipPath id="6569aa76d6"><rect x="0" width="6" y="0" height="5"/></clipPath><clipPath id="92ea2987a3"><rect x="0" width="170" y="0" height="40"/></clipPath><clipPath id="1c2054bd69"><rect x="0" width="257" y="0" height="237"/></clipPath></defs><g transform="matrix(1, 0, 0, 1, 61, 51)"><g clip-path="url(#1c2054bd69)"><g clip-path="url(#81057196ab)"><path stroke-linecap="butt" transform="matrix(0.950659, -0.767108, 0.767108, 0.950659, 18.029894, 100.658896)" fill="none" stroke-linejoin="miter" d="M -0.000193189 1.99814 L 127.886774 1.999791 " stroke="#000000" stroke-width="4" stroke-opacity="1" stroke-miterlimit="4"/></g><path stroke-linecap="butt" transform="matrix(0.00000000213202, 1.221559, -1.221559, 0.00000000213202, 42.423752, 63.530472)" fill="none" stroke-linejoin="miter" d="M 0.00063715 2.000135 L 138.620236 2.000135 " stroke="#000000" stroke-width="4" stroke-opacity="1" stroke-miterlimit="4"/><path stroke-linecap="butt" transform="matrix(0, -1.221559, 1.221559, 0, 231.134038, 232.853566)" fill="none" stroke-linejoin="miter" d="M -0.00155751 2.000793 L 138.582866 2.000793 " stroke="#000000" stroke-width="4" stroke-opacity="1" stroke-miterlimit="4"/><g clip-path="url(#e7368849dd)"><path stroke-linecap="butt" transform="matrix(0.92741, 0.795058, -0.795058, 0.92741, 139.299415, 2.613292)" fill="none" stroke-linejoin="miter" d="M 0.00135802 1.999523 L 123.388873 2.000971 " stroke="#000000" stroke-width="4" stroke-opacity="1" stroke-miterlimit="4"/></g><g clip-path="url(#618e8de22a)"><path stroke-linecap="butt" transform="matrix(0.941424, -0.778414, 0.778414, 0.941424, 2.37084, 126.259529)" fill="none" stroke-linejoin="miter" d="M -0.000276069 1.997911 L 103.622953 1.999586 " stroke="#000000" stroke-width="4" stroke-opacity="1" stroke-miterlimit="4"/></g><path stroke-linecap="butt" transform="matrix(0.00000000213202, 1.221559, -1.221559, 0.00000000213202, 228.142417, 26.061631)" fill="none" stroke-linejoin="miter" d="M 0.000711628 2.000065 L 91.255123 2.000065 " stroke="#000000" stroke-width="4" stroke-opacity="1" stroke-miterlimit="4"/><path stroke-linecap="butt" transform="matrix(0.00000000213202, 1.221559, -1.221559, 0.00000000213202, 141.867695, 7.885854)" fill="none" stroke-linejoin="miter" d="M 0.000707729 1.999014 L 14.876677 1.999014 " stroke="#000000" stroke-width="4" stroke-opacity="1" stroke-miterlimit="4"/><path stroke-linecap="butt" transform="matrix(1.221559, 0, 0, 1.221559, 127.949748, 188.10344)" fill="none" stroke-linejoin="miter" d="M -0.000433333 2.000259 L 18.837555 2.000259 " stroke="#000000" stroke-width="4" stroke-opacity="1" stroke-miterlimit="4"/><path stroke-linecap="butt" transform="matrix(0, 1.221559, -1.221559, 0, 137.784561, 181.496351)" fill="none" stroke-linejoin="miter" d="M -0.0002107 2.001309 L 7.412192 2.001309 " stroke="#000000" stroke-width="4" stroke-opacity="1" stroke-miterlimit="4"/><path stroke-linecap="butt" transform="matrix(0.00000000213202, 1.221559, -1.221559, 0.00000000213202, 144.201954, 181.862006)" fill="none" stroke-linejoin="miter" d="M 0.00104435 2.000838 L 7.10966 2.000838 " stroke="#000000" stroke-width="4" stroke-opacity="1" stroke-miterlimit="4"/><path stroke-linecap="butt" transform="matrix(1.221559, -0.00000000000000303, 0.00000000000000303, 1.221559, 112.195148, 179.408862)" fill="none" stroke-linejoin="miter" d="M 0.000134396 1.999658 L 45.942319 1.999658 " stroke="#000000" stroke-width="4" stroke-opacity="1" stroke-miterlimit="4"/><path stroke-linecap="butt" transform="matrix(1.221559, 0, 0, 1.221559, 110.230852, 154.062234)" fill="none" stroke-linejoin="miter" d="M -0.000313457 1.998816 L 47.84773 1.998816 " stroke="#000000" stroke-width="4" stroke-opacity="1" stroke-miterlimit="4"/><path stroke-linecap="butt" transform="matrix(0, -1.221559, 1.221559, 0, 110.085409, 184.149683)" fill="none" stroke-linejoin="miter" d="M 0.00101956 1.999031 L 22.634749 1.999031 " stroke="#000000" stroke-width="4" stroke-opacity="1" stroke-miterlimit="4"/><path stroke-linecap="butt" transform="matrix(0, -1.221559, 1.221559, 0, 163.867831, 184.149683)" fill="none" stroke-linejoin="miter" d="M 0.00101956 2.001269 L 22.634749 2.001269 " stroke="#000000" stroke-width="4" stroke-opacity="1" stroke-miterlimit="4"/><g clip-path="url(#65544101d5)"><g clip-path="url(#4f9b2a3329)"><g transform="matrix(1, 0, 0, 1, 126, 21)"><g clip-path="url(#706edbdd82)"><g clip-path="url(#4ede53e1d6)"><g clip-path="url(#b92843f41a)"><path fill="#222222" d="M 0.378906 0.976562 L 26.472656 0.976562 L 26.472656 14.023438 L 0.378906 14.023438 Z M 0.378906 0.976562 " fill-opacity="1" fill-rule="nonzero"/></g></g></g></g></g></g><path stroke-linecap="butt" transform="matrix(1.221559, 0, 0, 1.221559, 127.553155, 30.138291)" fill="none" stroke-linejoin="miter" d="M 0.00125428 2.000509 L 19.440421 2.000509 " stroke="#000000" stroke-width="4" stroke-opacity="1" stroke-miterlimit="4"/><path stroke-linecap="butt" transform="matrix(1.221559, 0, 0, 1.221559, 84.695816, 190.452493)" fill="none" stroke-linejoin="miter" d="M -0.000411959 1.999116 L 89.207426 1.999116 " stroke="#000000" stroke-width="4" stroke-opacity="1" stroke-miterlimit="4"/><path stroke-linecap="butt" transform="matrix(1.221559, 0, 0, 1.221559, 101.482192, 222.821641)" fill="none" stroke-linejoin="miter" d="M -0.00141089 2.000708 L 63.800244 2.000708 " stroke="#000000" stroke-width="4" stroke-opacity="1" stroke-miterlimit="4"/><g clip-path="url(#71d94f7604)"><path stroke-linecap="butt" transform="matrix(0.560294, 1.085485, -1.085485, 0.560294, 86.864516, 191.626801)" fill="none" stroke-linejoin="miter" d="M -0.000278605 1.998229 L 29.960931 2.000004 " stroke="#000000" stroke-width="4" stroke-opacity="1" stroke-miterlimit="4"/></g><g clip-path="url(#6942510275)"><path stroke-linecap="butt" transform="matrix(0.490326, -1.118833, 1.118833, 0.490326, 177.17787, 224.281592)" fill="none" stroke-linejoin="miter" d="M -0.0000905276 1.998722 L 29.066245 2.000448 " stroke="#000000" stroke-width="4" stroke-opacity="1" stroke-miterlimit="4"/></g><path stroke-linecap="butt" transform="matrix(1.221559, 0, 0, 1.221559, 93.623861, 206.684105)" fill="none" stroke-linejoin="miter" d="M 0.000932623 2.001378 L 74.866828 2.001378 " stroke="#000000" stroke-width="4" stroke-opacity="1" stroke-miterlimit="4"/><path stroke-linecap="butt" transform="matrix(0, 1.221559, -1.221559, 0, 143.231788, 195.448342)" fill="none" stroke-linejoin="miter" d="M 0.000717553 1.999678 L 24.418795 1.999678 " stroke="#000000" stroke-width="4" stroke-opacity="1" stroke-miterlimit="4"/><g clip-path="url(#f9a2da03a3)"><path stroke-linecap="butt" transform="matrix(0.893352, -0.833144, 0.833144, 0.893352, 116.573302, 231.068449)" fill="none" stroke-linejoin="miter" d="M -0.00096045 1.999458 L 9.110294 2.00074 " stroke="#000000" stroke-width="4" stroke-opacity="1" stroke-miterlimit="4"/></g><g clip-path="url(#b85eca9880)"><path stroke-linecap="butt" transform="matrix(-0.953682, -0.763346, 0.763346, -0.953682, 160.422168, 234.760676)" fill="none" stroke-linejoin="miter" d="M 0.000665037 2.001301 L 9.944834 2.000257 " stroke="#000000" stroke-width="4" stroke-opacity="1" stroke-miterlimit="4"/></g><g clip-path="url(#e8b343efde)"><g clip-path="url(#8d0af36e4a)"><g transform="matrix(1, 0, 0, 1, 86, 192)"><g clip-path="url(#fb80da813d)"><g clip-path="url(#13b9a20897)"><g clip-path="url(#1897736db9)"><rect x="-283.5" width="648" fill="#1e1e1e" y="-379.499997" height="647.999984" fill-opacity="1"/></g></g></g></g></g></g><g clip-path="url(#43cdffa0a4)"><g clip-path="url(#fbf779f40c)"><g transform="matrix(1, 0, 0, 1, 84, 192)"><g clip-path="url(#32af5f3476)"><g clip-path="url(#b8e0568820)"><g clip-path="url(#fd9cf642f4)"><rect x="-281.5" width="648" fill="#1e1e1e" y="-379.499997" height="647.999984" fill-opacity="1"/></g></g></g></g></g></g><g clip-path="url(#1439aab197)"><g clip-path="url(#a418c6293c)"><g transform="matrix(1, 0, 0, 1, 132, 198)"><g clip-path="url(#96e1b36d19)"><g clip-path="url(#18f98ce93b)"><g clip-path="url(#ba7042637e)"><path fill="#1e1e1e" d="M 0.234375 0.210938 L 5.09375 0.210938 L 5.09375 5.070312 L 0.234375 5.070312 Z M 0.234375 0.210938 " fill-opacity="1" fill-rule="nonzero"/></g></g></g></g></g></g><g clip-path="url(#46d62c19da)"><g clip-path="url(#bdc2b117f2)"><g transform="matrix(1, 0, 0, 1, 144, 198)"><g clip-path="url(#3a574d3676)"><g clip-path="url(#ff9eb4b5aa)"><g clip-path="url(#f863fd7ede)"><path fill="#1e1e1e" d="M 0.460938 0.210938 L 5.320312 0.210938 L 5.320312 5.070312 L 0.460938 5.070312 Z M 0.460938 0.210938 " fill-opacity="1" fill-rule="nonzero"/></g></g></g></g></g></g><g clip-path="url(#929eeae00d)"><g clip-path="url(#4b2a9eacf2)"><g transform="matrix(1, 0, 0, 1, 144, 214)"><g clip-path="url(#a8ac51fec8)"><g clip-path="url(#c304532195)"><g clip-path="url(#5824d6e364)"><path fill="#1e1e1e" d="M 0.460938 0.0117188 L 5.320312 0.0117188 L 5.320312 4.875 L 0.460938 4.875 Z M 0.460938 0.0117188 " fill-opacity="1" fill-rule="nonzero"/></g></g></g></g></g></g><g clip-path="url(#da41aa2cd6)"><g clip-path="url(#3931ab2b43)"><g transform="matrix(1, 0, 0, 1, 132, 214)"><g clip-path="url(#6569aa76d6)"><g clip-path="url(#9863595565)"><g clip-path="url(#e18032e5e9)"><path fill="#1e1e1e" d="M 0.234375 0.0117188 L 5.09375 0.0117188 L 5.09375 4.875 L 0.234375 4.875 Z M 0.234375 0.0117188 " fill-opacity="1" fill-rule="nonzero"/></g></g></g></g></g></g><g transform="matrix(1, 0, 0, 1, 48, 91)"><g clip-path="url(#92ea2987a3)"><g fill="#000000" fill-opacity="1"><g transform="translate(0.95719, 30.91379)"><g><path d="M 2.640625 0 L 2.640625 -20.34375 L 10.8125 -20.34375 C 12.914062 -20.34375 14.503906 -19.859375 15.578125 -18.890625 C 16.648438 -17.921875 17.1875 -16.582031 17.1875 -14.875 C 17.1875 -13.644531 16.875 -12.632812 16.25 -11.84375 C 15.625 -11.050781 14.6875 -10.445312 13.4375 -10.03125 L 13.4375 -9.734375 C 14.082031 -9.460938 14.601562 -9.050781 15 -8.5 C 15.394531 -7.957031 15.765625 -7.144531 16.109375 -6.0625 L 18.140625 0 L 14.015625 0 L 12.03125 -6.078125 C 11.820312 -6.691406 11.585938 -7.164062 11.328125 -7.5 C 11.078125 -7.84375 10.753906 -8.085938 10.359375 -8.234375 C 9.960938 -8.390625 9.453125 -8.46875 8.828125 -8.46875 L 6.671875 -8.46875 L 6.671875 0 Z M 10.328125 -11.65625 C 12.273438 -11.65625 13.25 -12.566406 13.25 -14.390625 C 13.25 -16.234375 12.273438 -17.15625 10.328125 -17.15625 L 6.671875 -17.15625 L 6.671875 -11.65625 Z M 10.328125 -11.65625 "/></g></g></g><g fill="#000000" fill-opacity="1"><g transform="translate(19.572921, 30.91379)"><g><path d="M 15.171875 -6.8125 L 5.296875 -6.8125 C 5.410156 -5.46875 5.789062 -4.492188 6.4375 -3.890625 C 7.09375 -3.285156 7.976562 -2.984375 9.09375 -2.984375 C 9.976562 -2.984375 10.691406 -3.144531 11.234375 -3.46875 C 11.785156 -3.800781 12.226562 -4.300781 12.5625 -4.96875 L 12.859375 -4.96875 L 15.421875 -3.328125 C 14.921875 -2.253906 14.164062 -1.378906 13.15625 -0.703125 C 12.144531 -0.0351562 10.789062 0.296875 9.09375 0.296875 C 7.507812 0.296875 6.140625 -0.00390625 4.984375 -0.609375 C 3.828125 -1.210938 2.9375 -2.109375 2.3125 -3.296875 C 1.6875 -4.492188 1.375 -5.953125 1.375 -7.671875 C 1.375 -9.410156 1.703125 -10.878906 2.359375 -12.078125 C 3.023438 -13.273438 3.914062 -14.164062 5.03125 -14.75 C 6.15625 -15.34375 7.421875 -15.640625 8.828125 -15.640625 C 10.992188 -15.640625 12.65625 -15.0625 13.8125 -13.90625 C 14.96875 -12.757812 15.546875 -11.070312 15.546875 -8.84375 C 15.546875 -8.039062 15.515625 -7.414062 15.453125 -6.96875 Z M 11.859375 -9.296875 C 11.816406 -10.460938 11.539062 -11.3125 11.03125 -11.84375 C 10.53125 -12.382812 9.796875 -12.65625 8.828125 -12.65625 C 6.878906 -12.65625 5.734375 -11.535156 5.390625 -9.296875 Z M 11.859375 -9.296875 "/></g></g></g><g fill="#000000" fill-opacity="1"><g transform="translate(36.254743, 30.91379)"><g><path d="M 2.21875 0 L 2.21875 -15.34375 L 5.921875 -15.34375 L 5.921875 -13.09375 L 6.203125 -13.03125 C 7.160156 -14.769531 8.710938 -15.640625 10.859375 -15.640625 C 12.628906 -15.640625 13.925781 -15.15625 14.75 -14.1875 C 15.582031 -13.226562 16 -11.828125 16 -9.984375 L 16 0 L 12.15625 0 L 12.15625 -9.5 C 12.15625 -10.519531 11.945312 -11.253906 11.53125 -11.703125 C 11.125 -12.160156 10.472656 -12.390625 9.578125 -12.390625 C 8.472656 -12.390625 7.609375 -12.03125 6.984375 -11.3125 C 6.367188 -10.601562 6.0625 -9.484375 6.0625 -7.953125 L 6.0625 0 Z M 2.21875 0 "/></g></g></g><g fill="#000000" fill-opacity="1"><g transform="translate(54.119175, 30.91379)"><g><path d="M 10.59375 -3.65625 L 11.59375 -0.8125 C 11.175781 -0.46875 10.648438 -0.195312 10.015625 0 C 9.390625 0.195312 8.675781 0.296875 7.875 0.296875 C 6.21875 0.296875 4.957031 -0.15625 4.09375 -1.0625 C 3.226562 -1.96875 2.796875 -3.285156 2.796875 -5.015625 L 2.796875 -12.296875 L 0.453125 -12.296875 L 0.453125 -15.359375 L 2.796875 -15.359375 L 2.796875 -18.359375 L 6.65625 -18.984375 L 6.65625 -15.359375 L 11 -15.359375 L 11 -12.296875 L 6.65625 -12.296875 L 6.65625 -5.28125 C 6.65625 -4.519531 6.8125 -3.96875 7.125 -3.625 C 7.4375 -3.28125 7.894531 -3.109375 8.5 -3.109375 C 9.1875 -3.109375 9.785156 -3.289062 10.296875 -3.65625 Z M 10.59375 -3.65625 "/></g></g></g><g fill="#000000" fill-opacity="1"><g transform="translate(66.042714, 30.91379)"><g/></g></g><g fill="#000000" fill-opacity="1"><g transform="translate(72.762749, 30.91379)"><g><path d="M 6.671875 -20.34375 L 6.671875 -3.375 L 15.8125 -3.375 L 15.8125 0 L 2.640625 0 L 2.640625 -20.34375 Z M 6.671875 -20.34375 "/></g></g></g><g fill="#000000" fill-opacity="1"><g transform="translate(89.23587, 30.91379)"><g><path d="M 15.171875 -6.8125 L 5.296875 -6.8125 C 5.410156 -5.46875 5.789062 -4.492188 6.4375 -3.890625 C 7.09375 -3.285156 7.976562 -2.984375 9.09375 -2.984375 C 9.976562 -2.984375 10.691406 -3.144531 11.234375 -3.46875 C 11.785156 -3.800781 12.226562 -4.300781 12.5625 -4.96875 L 12.859375 -4.96875 L 15.421875 -3.328125 C 14.921875 -2.253906 14.164062 -1.378906 13.15625 -0.703125 C 12.144531 -0.0351562 10.789062 0.296875 9.09375 0.296875 C 7.507812 0.296875 6.140625 -0.00390625 4.984375 -0.609375 C 3.828125 -1.210938 2.9375 -2.109375 2.3125 -3.296875 C 1.6875 -4.492188 1.375 -5.953125 1.375 -7.671875 C 1.375 -9.410156 1.703125 -10.878906 2.359375 -12.078125 C 3.023438 -13.273438 3.914062 -14.164062 5.03125 -14.75 C 6.15625 -15.34375 7.421875 -15.640625 8.828125 -15.640625 C 10.992188 -15.640625 12.65625 -15.0625 13.8125 -13.90625 C 14.96875 -12.757812 15.546875 -11.070312 15.546875 -8.84375 C 15.546875 -8.039062 15.515625 -7.414062 15.453125 -6.96875 Z M 11.859375 -9.296875 C 11.816406 -10.460938 11.539062 -11.3125 11.03125 -11.84375 C 10.53125 -12.382812 9.796875 -12.65625 8.828125 -12.65625 C 6.878906 -12.65625 5.734375 -11.535156 5.390625 -9.296875 Z M 11.859375 -9.296875 "/></g></g></g><g fill="#000000" fill-opacity="1"><g transform="translate(105.917692, 30.91379)"><g><path d="M 7.578125 0.296875 C 6.367188 0.296875 5.296875 0.00390625 4.359375 -0.578125 C 3.429688 -1.171875 2.703125 -2.0625 2.171875 -3.25 C 1.640625 -4.445312 1.375 -5.921875 1.375 -7.671875 C 1.375 -9.421875 1.644531 -10.890625 2.1875 -12.078125 C 2.726562 -13.273438 3.476562 -14.164062 4.4375 -14.75 C 5.40625 -15.34375 6.519531 -15.640625 7.78125 -15.640625 C 8.738281 -15.640625 9.566406 -15.472656 10.265625 -15.140625 C 10.960938 -14.816406 11.550781 -14.304688 12.03125 -13.609375 L 12.328125 -13.671875 L 12.328125 -21.515625 L 16.1875 -21.515625 L 16.1875 0 L 12.328125 0 L 12.328125 -1.984375 L 12.03125 -2.046875 C 11.601562 -1.316406 11.019531 -0.742188 10.28125 -0.328125 C 9.539062 0.0859375 8.640625 0.296875 7.578125 0.296875 Z M 8.84375 -2.984375 C 9.925781 -2.984375 10.78125 -3.367188 11.40625 -4.140625 C 12.039062 -4.910156 12.359375 -6.085938 12.359375 -7.671875 C 12.359375 -9.242188 12.039062 -10.421875 11.40625 -11.203125 C 10.78125 -11.984375 9.925781 -12.375 8.84375 -12.375 C 7.707031 -12.375 6.835938 -11.992188 6.234375 -11.234375 C 5.640625 -10.484375 5.34375 -9.296875 5.34375 -7.671875 C 5.34375 -6.054688 5.640625 -4.867188 6.234375 -4.109375 C 6.835938 -3.359375 7.707031 -2.984375 8.84375 -2.984375 Z M 8.84375 -2.984375 "/></g></g></g><g fill="#000000" fill-opacity="1"><g transform="translate(124.310822, 30.91379)"><g><path d="M 7.953125 6.515625 C 5.421875 6.515625 3.550781 6.140625 2.34375 5.390625 C 1.144531 4.648438 0.546875 3.617188 0.546875 2.296875 C 0.546875 1.484375 0.800781 0.820312 1.3125 0.3125 C 1.832031 -0.195312 2.570312 -0.539062 3.53125 -0.71875 L 3.53125 -1.015625 C 3.007812 -1.328125 2.632812 -1.675781 2.40625 -2.0625 C 2.1875 -2.445312 2.078125 -2.894531 2.078125 -3.40625 C 2.078125 -4.644531 2.878906 -5.476562 4.484375 -5.90625 L 4.484375 -6.1875 C 3.660156 -6.664062 3.035156 -7.253906 2.609375 -7.953125 C 2.191406 -8.648438 1.984375 -9.5 1.984375 -10.5 C 1.984375 -11.519531 2.21875 -12.414062 2.6875 -13.1875 C 3.15625 -13.957031 3.84375 -14.554688 4.75 -14.984375 C 5.65625 -15.421875 6.738281 -15.640625 8 -15.640625 C 9.28125 -15.640625 10.300781 -15.414062 11.0625 -14.96875 C 11.53125 -15.65625 11.804688 -16.453125 11.890625 -17.359375 L 12.171875 -17.53125 L 14.953125 -16.859375 C 14.867188 -16.117188 14.65625 -15.5 14.3125 -15 C 13.96875 -14.507812 13.429688 -14.066406 12.703125 -13.671875 L 12.703125 -13.375 C 13.566406 -12.613281 14 -11.550781 14 -10.1875 C 14 -9.238281 13.757812 -8.390625 13.28125 -7.640625 C 12.8125 -6.890625 12.125 -6.296875 11.21875 -5.859375 C 10.3125 -5.421875 9.238281 -5.203125 8 -5.203125 L 7.421875 -5.21875 C 7.046875 -5.238281 6.785156 -5.25 6.640625 -5.25 C 6.285156 -5.25 6.007812 -5.148438 5.8125 -4.953125 C 5.613281 -4.765625 5.515625 -4.523438 5.515625 -4.234375 C 5.515625 -3.910156 5.644531 -3.65625 5.90625 -3.46875 C 6.164062 -3.289062 6.546875 -3.191406 7.046875 -3.171875 L 10.484375 -3.046875 C 13.878906 -2.941406 15.578125 -1.476562 15.578125 1.34375 C 15.578125 2.332031 15.320312 3.210938 14.8125 3.984375 C 14.3125 4.765625 13.492188 5.378906 12.359375 5.828125 C 11.222656 6.285156 9.753906 6.515625 7.953125 6.515625 Z M 8 -7.90625 C 8.738281 -7.90625 9.316406 -8.125 9.734375 -8.5625 C 10.160156 -9 10.375 -9.617188 10.375 -10.421875 C 10.375 -11.234375 10.160156 -11.851562 9.734375 -12.28125 C 9.316406 -12.707031 8.738281 -12.921875 8 -12.921875 C 7.25 -12.921875 6.671875 -12.707031 6.265625 -12.28125 C 5.859375 -11.851562 5.65625 -11.234375 5.65625 -10.421875 C 5.65625 -9.609375 5.859375 -8.984375 6.265625 -8.546875 C 6.671875 -8.117188 7.25 -7.90625 8 -7.90625 Z M 7.953125 3.71875 C 9.273438 3.71875 10.234375 3.53125 10.828125 3.15625 C 11.429688 2.789062 11.734375 2.3125 11.734375 1.71875 C 11.734375 1.226562 11.578125 0.867188 11.265625 0.640625 C 10.960938 0.421875 10.476562 0.300781 9.8125 0.28125 L 6.78125 0.140625 C 6.675781 0.140625 6.578125 0.132812 6.484375 0.125 C 6.398438 0.113281 6.316406 0.109375 6.234375 0.109375 C 5.585938 0.109375 5.09375 0.25 4.75 0.53125 C 4.414062 0.8125 4.25 1.195312 4.25 1.6875 C 4.25 2.332031 4.554688 2.832031 5.171875 3.1875 C 5.796875 3.539062 6.722656 3.71875 7.953125 3.71875 Z M 7.953125 3.71875 "/></g></g></g><g fill="#000000" fill-opacity="1"><g transform="translate(140.032627, 30.91379)"><g><path d="M 15.171875 -6.8125 L 5.296875 -6.8125 C 5.410156 -5.46875 5.789062 -4.492188 6.4375 -3.890625 C 7.09375 -3.285156 7.976562 -2.984375 9.09375 -2.984375 C 9.976562 -2.984375 10.691406 -3.144531 11.234375 -3.46875 C 11.785156 -3.800781 12.226562 -4.300781 12.5625 -4.96875 L 12.859375 -4.96875 L 15.421875 -3.328125 C 14.921875 -2.253906 14.164062 -1.378906 13.15625 -0.703125 C 12.144531 -0.0351562 10.789062 0.296875 9.09375 0.296875 C 7.507812 0.296875 6.140625 -0.00390625 4.984375 -0.609375 C 3.828125 -1.210938 2.9375 -2.109375 2.3125 -3.296875 C 1.6875 -4.492188 1.375 -5.953125 1.375 -7.671875 C 1.375 -9.410156 1.703125 -10.878906 2.359375 -12.078125 C 3.023438 -13.273438 3.914062 -14.164062 5.03125 -14.75 C 6.15625 -15.34375 7.421875 -15.640625 8.828125 -15.640625 C 10.992188 -15.640625 12.65625 -15.0625 13.8125 -13.90625 C 14.96875 -12.757812 15.546875 -11.070312 15.546875 -8.84375 C 15.546875 -8.039062 15.515625 -7.414062 15.453125 -6.96875 Z M 11.859375 -9.296875 C 11.816406 -10.460938 11.539062 -11.3125 11.03125 -11.84375 C 10.53125 -12.382812 9.796875 -12.65625 8.828125 -12.65625 C 6.878906 -12.65625 5.734375 -11.535156 5.390625 -9.296875 Z M 11.859375 -9.296875 "/></g></g></g><g fill="#000000" fill-opacity="1"><g transform="translate(156.714449, 30.91379)"><g><path d="M 2.21875 0 L 2.21875 -15.34375 L 5.953125 -15.34375 L 5.953125 -13.0625 L 6.25 -13.015625 C 6.625 -13.867188 7.109375 -14.492188 7.703125 -14.890625 C 8.304688 -15.285156 9.039062 -15.484375 9.90625 -15.484375 C 10.78125 -15.484375 11.441406 -15.335938 11.890625 -15.046875 L 11.25 -11.71875 L 10.953125 -11.65625 C 10.703125 -11.757812 10.457031 -11.832031 10.21875 -11.875 C 9.988281 -11.925781 9.707031 -11.953125 9.375 -11.953125 C 8.300781 -11.953125 7.476562 -11.570312 6.90625 -10.8125 C 6.34375 -10.0625 6.0625 -8.851562 6.0625 -7.1875 L 6.0625 0 Z M 2.21875 0 "/></g></g></g></g></g></g></g></svg>